<?xml version="1.0" encoding="utf-8"?>
<!DOCTYPE svg PUBLIC "-//W3C//DTD SVG 1.1//EN" "http://www.w3.org/Graphics/SVG/1.1/DTD/svg11.dtd">
<svg version="1.1" id="Capa_1" xmlns="http://www.w3.org/2000/svg" xmlns:xlink="http://www.w3.org/1999/xlink" x="0px" y="0px"
width="2160px" height="2160px" viewBox="0 0 2160 2160" enable-background="new 0 0 1080 2408" xml:space="preserve">
<defs></defs><g><path layer="1" fill="#FFFCC8" fill-opacity="1.0" stroke="#FFFCC8" stroke-width="30.0" stroke-opacity="0.0" stroke-miterlimit="10" d="M1034.59,92.46C984.58,98.4,915.68,101.21,815.67,113.1C678.73,124.58,636.39,126.58,573.32,129.67C559.56,130.13,495.09,133.62,420.34,133.06C420.34,133.06,284.71,132.08,284.71,132.08C284.71,132.08,284.67,141.63,284.67,141.63C284.67,141.63,284.55,151.34,284.55,151.34C284.55,151.34,297.99,151.86,297.99,151.86C368.81,156.94,406.68,185.08,430.92,246.47C448.02,286.97,445.98,331.72,451.99,407.49C457.74,495.2,459.18,555.5,462.46,1140.66C458.58,1719.21,458.14,1720.76,449.76,1804.05C445.06,1859.34,440.75,1890.51,429.54,1925.14C412.97,1976.57,384.99,2006.86,345.36,2021.01C334.72,2025.48,315.01,2028.49,300.53,2028.73C294.72,2029.03,288.09,2029.57,285.31,2029.95C285.31,2029.95,280.18,2030.52,280.18,2030.52C280.18,2030.52,280.28,2039.74,280.28,2039.74C280.28,2039.74,280.04,2048.83,280.04,2048.83C280.04,2048.83,546.96,2052.5,546.96,2052.5C546.96,2052.5,796.8,2048.93,796.8,2048.93C796.8,2048.93,796.44,2040.36,796.44,2040.36C797.27,2035.93,798.19,2032.26,797.99,2031.8C797.99,2031.8,791.01,2031.24,781.94,2030.38C750.12,2026.36,738.82,2023.45,717.67,2014.43C703.21,2007.93,694.54,1995.19,684.02,1979.96C653.28,1937.31,634.89,1869.33,631.05,1753.66C627.4,1683.28,627.24,1643.02,626.96,901.39C626.96,901.39,618.27,179.84,618.27,179.84C618.27,179.84,620.99,178.84,620.99,178.84C713.48,149.55,787.27,132.84,866.12,127.81C926.67,120.06,992.71,116.87,1054.7,122.93C1164.99,133.81,1261.51,164.54,1336.74,211.78C1450.64,283.5,1527.37,401.06,1552.75,549.47C1556.99,579.7,1557.83,595.39,1559.08,632.46C1559.06,668.44,1558.57,680.1,1554.83,707.46C1537.98,803.53,1498.41,894.51,1442.73,967.05C1429.75,982.22,1405.56,1006.93,1389.71,1018.25C1333.05,1064.93,1267.06,1089.22,1195.12,1097.24C1178.68,1099.15,1130.65,1098.81,1110.92,1096.26C1061.81,1093.05,1018.04,1079.45,941.77,1043.46C910.21,1028.82,867.37,1010.34,853.42,1005.39C826.61,995.96,793.9,989.84,774.61,990.92C754.38,992.01,744.27,999.35,728.44,1009.68C714.74,1021.17,710.08,1034.74,711.8,1056.5C713.14,1090.38,723.42,1114.34,753.98,1143.83C771.85,1161.08,779.34,1167.22,852.06,1218.41C914.11,1264.91,950.2,1292.7,979.03,1327.46C1012.55,1360.92,1052.25,1406.1,1081.29,1445.52C1096.01,1466.32,1146.15,1536.24,1243.69,1682.56C1328.05,1818.37,1375.7,1893.4,1403.94,1927.72C1421.82,1953.04,1449.32,1988.19,1462.46,2002.03C1486.11,2027.57,1508.45,2043.05,1530.9,2049.57C1530.9,2049.57,1538.39,2051.68,1538.39,2051.68C1538.39,2051.68,1685.9,2049.49,1685.9,2049.49C1685.9,2049.49,1842.34,2050.76,1842.34,2050.76C1842.34,2050.76,1842.26,2041.53,1842.26,2041.53C1842.26,2041.53,1842.18,2032.3,1842.18,2032.3C1842.18,2032.3,1838.6,2031.64,1838.6,2031.64C1836.85,2031.46,1830.66,2030.84,1825.46,2030.63C1803.07,2028.95,1771.28,2020.14,1747.77,2010.33C1657.4,1972.74,1568.39,1877.79,1448.72,1703.16C1416.05,1651.11,1408.66,1639.29,1350.26,1552.42C1306.06,1468.67,1295.74,1452.0,1280.22,1435.49C1257.81,1401.25,1218.83,1363.65,1172.87,1331.62C1147.55,1312.8,1126.34,1299.74,1096.75,1282.47C1048.15,1256.07,1009.63,1237.61,930.32,1203.03C880.01,1180.92,852.8,1168.38,832.38,1158.33C754.14,1119.79,726.52,1089.12,731.41,1049.4C736.01,1031.77,743.73,1018.65,761.47,1012.93C768.48,1010.98,771.25,1010.78,785.67,1010.56C802.29,1011.08,803.75,1011.28,815.47,1014.35C834.14,1019.71,855.11,1028.66,914.91,1057.76C974.76,1087.63,1002.66,1099.61,1034.77,1110.45C1060.68,1118.51,1092.85,1125.83,1133.81,1131.51C1151.09,1133.19,1191.49,1131.93,1214.3,1130.97C1327.33,1125.55,1422.12,1092.19,1508.79,1038.87C1573.84,984.16,1633.22,912.59,1669.33,834.15C1710.58,752.08,1721.61,665.88,1722.81,574.48C1700.14,356.94,1555.37,193.55,1339.44,128.87C1286.04,113.12,1214.96,99.54,1148.91,95.07C1125.18,93.58,1062.33,91.94,1034.59,92.46Z" stroke-linecap="round"/>
</g></svg>